<?xml version="1.0" standalone="no"?>
<!DOCTYPE svg PUBLIC "-//W3C//DTD SVG 20010904//EN"
 "http://www.w3.org/TR/2001/REC-SVG-20010904/DTD/svg10.dtd">
<svg version="1.0" xmlns="http://www.w3.org/2000/svg"
 width="512.000000pt" height="512.000000pt" viewBox="0 0 512.000000 512.000000"
 preserveAspectRatio="xMidYMid meet">

<g transform="translate(0.000000,512.000000) scale(0.100000,-0.100000)"
fill="#000000" stroke="none">
<path d="M1375 4866 c-101 -44 -125 -178 -46 -257 112 -113 296 -12 267 146
-18 94 -131 151 -221 111z"/>
<path d="M3775 4706 c-101 -44 -125 -178 -46 -257 112 -113 296 -12 267 146
-18 94 -131 151 -221 111z"/>
<path d="M2495 4626 c-101 -44 -125 -178 -46 -257 112 -113 296 -12 267 146
-18 94 -131 151 -221 111z"/>
<path d="M1691 4526 c-14 -18 -39 -43 -57 -57 l-33 -24 120 -120 119 -120 0
-263 0 -262 80 0 80 0 0 298 0 297 -142 142 -143 142 -24 -33z"/>
<path d="M3342 4177 l-222 -222 0 -138 0 -137 80 0 80 0 0 102 0 103 200 200
199 200 -32 24 c-18 13 -44 39 -58 57 l-25 33 -222 -222z"/>
<path d="M2160 4160 l0 -80 80 0 80 0 0 80 0 80 -80 0 -80 0 0 -80z"/>
<path d="M2800 4160 l0 -80 80 0 80 0 0 80 0 80 -80 0 -80 0 0 -80z"/>
<path d="M2480 3923 l0 -243 80 0 80 0 0 243 0 242 -80 0 -80 0 0 -242z"/>
<path d="M2160 3800 l0 -120 80 0 80 0 0 120 0 120 -80 0 -80 0 0 -120z"/>
<path d="M2800 3800 l0 -120 80 0 80 0 0 120 0 120 -80 0 -80 0 0 -120z"/>
<path d="M648 3740 c-57 -31 -83 -75 -83 -142 0 -95 58 -153 155 -153 97 0
155 58 155 154 0 48 -5 64 -29 95 -49 65 -127 83 -198 46z"/>
<path d="M1280 3680 l0 -80 80 0 80 0 0 80 0 80 -80 0 -80 0 0 -80z"/>
<path d="M3680 3680 l0 -80 80 0 80 0 0 80 0 80 -80 0 -80 0 0 -80z"/>
<path d="M4320 3738 c-75 -51 -97 -122 -62 -201 49 -110 196 -126 270 -29 35
47 39 135 6 179 -35 48 -82 73 -134 73 -32 0 -57 -7 -80 -22z"/>
<path d="M1760 3507 c-49 -16 -133 -102 -148 -153 -17 -59 -17 -1529 0 -1588
16 -55 99 -138 154 -154 31 -9 233 -12 796 -12 859 0 816 -4 891 80 24 26 49
66 55 88 17 56 17 1528 0 1584 -6 22 -31 62 -55 88 -75 84 -31 80 -897 79
-524 -1 -772 -4 -796 -12z m964 -185 c90 -42 149 -100 193 -188 32 -66 37 -84
41 -173 5 -99 5 -100 34 -112 40 -16 102 -90 116 -137 17 -56 17 -729 0 -786
-16 -55 -99 -138 -154 -154 -58 -17 -730 -17 -788 0 -55 16 -138 99 -154 154
-17 57 -17 730 0 786 14 47 76 121 116 137 29 12 29 13 34 110 4 83 10 109 36
164 39 83 96 146 171 185 78 42 122 52 213 48 61 -3 92 -11 142 -34z"/>
<path d="M2480 3187 c-49 -16 -133 -102 -148 -153 -7 -23 -12 -67 -12 -98 l0
-56 240 0 240 0 0 56 c0 81 -18 129 -67 184 -65 72 -158 97 -253 67z"/>
<path d="M2185 2695 l-25 -24 0 -351 0 -351 25 -24 24 -25 351 0 351 0 24 25
25 24 0 351 0 351 -25 24 -24 25 -351 0 -351 0 -24 -25z m483 -84 c74 -38 132
-128 132 -205 0 -85 -62 -188 -130 -216 l-30 -12 0 -89 0 -89 -80 0 -80 0 0
90 c0 68 -3 90 -13 90 -23 0 -97 70 -119 114 -29 54 -31 155 -4 206 65 124
205 172 324 111z"/>
<path d="M2505 2455 c-50 -49 -15 -135 55 -135 41 0 80 39 80 80 0 41 -39 80
-80 80 -19 0 -40 -9 -55 -25z"/>
<path d="M971 3406 c-14 -18 -39 -43 -57 -57 l-33 -24 102 -102 102 -103 177
0 178 0 0 80 0 80 -142 0 -143 0 -80 79 -80 80 -24 -33z"/>
<path d="M4044 3359 l-79 -79 -142 0 -143 0 0 -80 0 -80 178 0 177 0 102 103
102 102 -32 24 c-18 13 -44 39 -58 57 l-26 33 -79 -80z"/>
<path d="M4640 3018 c-75 -51 -97 -122 -62 -201 49 -110 196 -126 269 -30 38
50 43 126 11 173 -54 79 -149 105 -218 58z"/>
<path d="M756 2813 l-176 -146 33 -31 c18 -17 42 -44 53 -60 l21 -29 151 126
151 127 226 0 225 0 0 80 0 80 -254 0 -254 0 -176 -147z"/>
<path d="M3680 2880 l0 -80 120 0 120 0 0 80 0 80 -120 0 -120 0 0 -80z"/>
<path d="M4080 2880 l0 -80 80 0 80 0 0 80 0 80 -80 0 -80 0 0 -80z"/>
<path d="M4230 2725 l-165 -84 -192 0 -193 -1 0 -80 0 -80 210 0 210 0 190 95
189 95 -24 35 c-13 20 -29 52 -35 70 -6 19 -15 35 -18 34 -4 0 -81 -38 -172
-84z"/>
<path d="M880 2560 l0 -80 80 0 80 0 0 80 0 80 -80 0 -80 0 0 -80z"/>
<path d="M1200 2560 l0 -80 120 0 120 0 0 80 0 80 -120 0 -120 0 0 -80z"/>
<path d="M335 2546 c-103 -45 -126 -180 -44 -258 68 -65 153 -64 219 2 125
125 -14 326 -175 256z"/>
<path d="M720 2240 l0 -80 360 0 360 0 0 80 0 80 -360 0 -360 0 0 -80z"/>
<path d="M3680 2240 l0 -80 200 0 200 0 0 80 0 80 -200 0 -200 0 0 -80z"/>
<path d="M4240 2240 l0 -80 80 0 80 0 0 80 0 80 -80 0 -80 0 0 -80z"/>
<path d="M865 1804 c-71 -108 -131 -202 -133 -209 -2 -7 8 -15 21 -18 13 -4
43 -20 67 -36 l44 -30 110 165 109 164 179 0 178 0 0 80 0 80 -222 0 -223 0
-130 -196z"/>
<path d="M3680 1920 l0 -80 342 0 342 0 41 -39 40 -40 24 33 c14 18 39 43 57
57 l33 24 -62 63 -61 62 -378 0 -378 0 0 -80z"/>
<path d="M4642 1740 c-127 -78 -91 -267 56 -296 46 -9 116 20 149 63 38 50 43
126 11 173 -53 77 -145 103 -216 60z"/>
<path d="M1280 1440 l0 -80 80 0 80 0 0 80 0 80 -80 0 -80 0 0 -80z"/>
<path d="M3680 1440 l0 -80 80 0 80 0 0 80 0 80 -80 0 -80 0 0 -80z"/>
<path d="M574 1421 c-61 -28 -89 -73 -89 -143 0 -90 55 -148 147 -156 58 -4
102 17 141 70 53 71 21 183 -63 226 -54 27 -82 27 -136 3z"/>
<path d="M1840 1178 l0 -263 -119 -120 -120 -120 33 -24 c18 -14 43 -39 57
-57 l24 -33 143 142 142 142 0 297 0 298 -80 0 -80 0 0 -262z"/>
<path d="M2160 1200 l0 -240 80 0 80 0 0 240 0 240 -80 0 -80 0 0 -240z"/>
<path d="M2480 1098 l1 -343 205 -129 c113 -70 207 -127 208 -125 2 2 11 20
21 39 10 19 26 46 36 59 11 13 19 27 19 32 0 4 -74 54 -165 111 l-165 103 0
298 0 297 -80 0 -80 0 0 -342z"/>
<path d="M2800 1320 l0 -120 80 0 80 0 0 120 0 120 -80 0 -80 0 0 -120z"/>
<path d="M3120 1120 l0 -320 243 0 242 0 0 80 0 80 -162 0 -163 0 0 240 0 240
-80 0 -80 0 0 -320z"/>
<path d="M2800 960 l0 -80 80 0 80 0 0 80 0 80 -80 0 -80 0 0 -80z"/>
<path d="M3855 1026 c-101 -44 -125 -178 -46 -257 65 -65 157 -65 222 0 124
124 -15 327 -176 257z"/>
<path d="M2160 720 l0 -80 80 0 80 0 0 80 0 80 -80 0 -80 0 0 -80z"/>
<path d="M1375 546 c-101 -44 -125 -178 -46 -257 65 -65 157 -65 222 0 124
124 -15 327 -176 257z"/>
<path d="M3135 546 c-101 -44 -125 -178 -46 -257 112 -113 296 -12 267 146
-18 94 -131 151 -221 111z"/>
</g>
</svg>
